#N canvas 363 340 878 538 12;
#X declare -stdpath soundfiler;
#X obj 17 248 soundfiler;
#X obj 500 18 declare -stdpath soundfiler;
#X floatatom 20 290 8 0 0 0 - - -;
#X obj 20 34 bng 15 250 50 0 empty empty empty 17 7 0 10 -262144 -1
-1;
#N canvas 0 50 450 250 (subpatch) 0;
#X array sample 345168 float 2;
#X coords 0 1 345168 -1 200 140 1;
#X restore 156 359 graph;
#X obj 365 441 dac~;
#X obj 855 330 phasor~;
#X obj 842 278 readsf~;
#X obj 828 178 line~;
#X msg 829 125 0 \, 345168 8000;
#X obj 830 224 tabread4~ sample;
#X obj 822 64 bng 15 250 50 0 empty empty empty 17 7 0 10 -262144 -1
-1;
#X msg 17 154 read -resize resources/amen_break.wav sample;
#X msg 98 197 soundfile_arrayname sample;
#X obj 21 60 t b b;
#X obj 363 387 pd_granular_synth~ sample;
#X obj 19 6 loadbang;
#X floatatom 309 198 5 0 0 0 - - -;
#X floatatom 342 154 8 0 0 0 - - -;
#X obj 501 233 notein;
#X floatatom 477 279 5 0 0 0 - - -;
#X floatatom 519 279 5 0 0 0 - - -;
#X obj 669 153 vsl 15 128 0.01 1 0 0 empty empty S 0 -9 0 10 -262144
-1 -1 2400 1;
#X obj 726 184 vsl 15 128 1 10000 1 0 empty empty R 0 -9 0 10 -262144
-1 -1 4500 1;
#X floatatom 578 260 5 0 0 0 - - -;
#X floatatom 625 280 5 0 0 0 - - -;
#X floatatom 668 307 5 0 0 0 - - -;
#X floatatom 715 330 5 0 0 0 - - -;
#X obj 549 136 vsl 15 128 1 3000 1 0 empty empty A 0 -9 0 10 -262144
-1 -1 0 1;
#X obj 613 133 vsl 15 128 1 3000 1 0 empty empty D 0 -9 0 10 -262144
-1 -1 12700 1;
#X obj 273 36 hsl 128 15 0 127 0 0 empty empty StartPosition(samples)-MIDI_CC_3
-2 -8 0 10 -262144 -1 -1 7800 1;
#X obj 277 59 / 127;
#X obj 314 85 *;
#X obj 95 9 ctlin 2;
#X obj 97 77 hsl 128 15 0 127 0 0 empty empty GrainSize(ms)-MIDI_CC_2
-2 -8 0 10 -262144 -1 -1 9400 1;
#X obj 196 10 ctlin 3;
#X obj 561 44 ctlin 6;
#X obj 623 44 ctlin 7;
#X obj 660 69 ctlin 8;
#X obj 711 96 ctlin 9;
#X msg 19 341 s sample.length;
#X obj 367 113 hsl 128 15 0 127 0 0 empty empty Playback_Speed -2 -8
0 10 -262144 -1 -1 0 1;
#X obj 351 75 ctlin 4;
#X floatatom 392 245 5 0 0 0 - - -;
#X obj 418 139 / 127;
#X obj 418 177 * 4;
#X obj 406 201 - 2;
#X obj 660 103 / 127;
#X obj 506 69 / 127;
#X obj 598 76 / 127;
#X obj 734 125 / 127;
#X obj 510 101 * 3000;
#X obj 575 101 * 3000;
#X obj 736 154 * 10000;
#X floatatom 610 386 5 0 0 0 - - -;
#X obj 670 390 hsl 128 15 0.005 1 1 0 empty empty empty -2 -8 0 10
-262144 -1 -1 5700 1;
#X connect 0 0 2 0;
#X connect 2 0 40 0;
#X connect 2 0 32 1;
#X connect 3 0 14 0;
#X connect 8 0 10 0;
#X connect 9 0 8 0;
#X connect 11 0 9 0;
#X connect 12 0 0 0;
#X connect 14 0 13 0;
#X connect 14 1 12 0;
#X connect 15 0 5 0;
#X connect 15 0 5 1;
#X connect 16 0 3 0;
#X connect 17 0 15 1;
#X connect 18 0 15 2;
#X connect 19 0 20 0;
#X connect 19 1 21 0;
#X connect 20 0 15 4;
#X connect 21 0 15 5;
#X connect 22 0 26 0;
#X connect 23 0 27 0;
#X connect 24 0 15 6;
#X connect 25 0 15 7;
#X connect 26 0 15 8;
#X connect 27 0 15 9;
#X connect 28 0 24 0;
#X connect 29 0 25 0;
#X connect 30 0 31 0;
#X connect 31 0 32 0;
#X connect 32 0 18 0;
#X connect 33 0 34 0;
#X connect 34 0 17 0;
#X connect 35 0 30 0;
#X connect 36 0 48 0;
#X connect 37 0 49 0;
#X connect 38 0 47 0;
#X connect 39 0 50 0;
#X connect 41 0 44 0;
#X connect 42 0 41 0;
#X connect 43 0 15 3;
#X connect 44 0 45 0;
#X connect 45 0 46 0;
#X connect 46 0 43 0;
#X connect 47 0 22 0;
#X connect 48 0 51 0;
#X connect 49 0 52 0;
#X connect 50 0 53 0;
#X connect 51 0 28 0;
#X connect 52 0 29 0;
#X connect 53 0 23 0;
#X connect 54 0 15 10;
#X connect 55 0 54 0;
