#N canvas 562 119 878 455 12;
#X declare -stdpath soundfiler;
#X obj 17 248 soundfiler;
#X obj 500 18 declare -stdpath soundfiler;
#X floatatom 20 290 8 0 0 0 - - -;
#X obj 20 34 bng 15 250 50 0 empty empty empty 17 7 0 10 -262144 -1
-1;
#N canvas 0 50 450 250 (subpatch) 0;
#X array sample 345168 float 2;
#X coords 0 1 345168 -1 200 140 1;
#X restore 376 253 graph;
#X msg 19 341 s $sample.length;
#X obj 372 213 dac~;
#X obj 750 311 phasor~;
#X obj 737 259 readsf~;
#X obj 723 159 line~;
#X msg 724 106 0 \, 345168 8000;
#X obj 725 205 tabread4~ sample;
#X obj 717 45 bng 15 250 50 0 empty empty empty 17 7 0 10 -262144 -1
-1;
#X msg 17 154 read -resize resources/amen_break.wav sample;
#X msg 98 197 soundfile_arrayname sample;
#X obj 21 60 t b b;
#X obj 377 169 pd_granular_synth~ sample;
#X obj 19 6 loadbang;
#X floatatom 271 76 5 0 0 0 - - -;
#X obj 271 46 hsl 128 15 1 200 0 0 empty empty Grain_Size_[ms] -2 -8
0 10 -262144 -1 -1 0 1;
#X floatatom 543 121 5 0 0 0 - - -;
#X obj 547 90 hsl 128 15 0 127 0 0 empty empty Start_Position_[samples?/ms?]
-2 -8 0 10 -262144 -1 -1 0 1;
#X text 264 19 comment;
#X obj 449 56 notein;
#X floatatom 424 80 5 0 0 0 - - -;
#X floatatom 468 84 5 0 0 0 - - -;
#X connect 0 0 2 0;
#X connect 2 0 5 0;
#X connect 3 0 15 0;
#X connect 9 0 11 0;
#X connect 10 0 9 0;
#X connect 12 0 10 0;
#X connect 13 0 0 0;
#X connect 15 0 14 0;
#X connect 15 1 13 0;
#X connect 16 0 6 0;
#X connect 16 0 6 1;
#X connect 17 0 3 0;
#X connect 18 0 16 1;
#X connect 19 0 18 0;
#X connect 20 0 16 2;
#X connect 21 0 20 0;
#X connect 23 0 24 0;
#X connect 23 1 25 0;
#X connect 24 0 16 3;
#X connect 25 0 16 4;
